<svg width="28" height="28" viewBox="0 0 28 28" fill="none" xmlns="http://www.w3.org/2000/svg">
<path d="M27.0387 0.547973C26.736 0.374273 26.3765 0.236461 25.9806 0.142431C25.5847 0.0484011 25.1603 0 24.7317 0C24.3031 0 23.8787 0.0484011 23.4828 0.142431C23.087 0.236461 22.7274 0.374273 22.4247 0.547973L0.762339 12.9478C0.520681 13.0859 0.328958 13.2498 0.198146 13.4304C0.0673338 13.6109 0 13.8044 0 13.9998C0 14.1952 0.0673338 14.3887 0.198146 14.5692C0.328958 14.7498 0.520681 14.9137 0.762339 15.0518L22.4247 27.4516C23.702 28.1828 25.7614 28.1828 27.0387 27.4516C28.316 26.7205 28.316 25.5417 27.0387 24.8105L8.16561 13.9923L27.0648 3.17418C28.316 2.45794 28.316 1.26421 27.0387 0.547973Z" fill="white"/>
</svg>
