<svg width="33" height="29" viewBox="0 0 33 29" fill="none" xmlns="http://www.w3.org/2000/svg">
<path fill-rule="evenodd" clip-rule="evenodd" d="M24.8099 0.824557C24.4397 0.499261 23.9845 0.258639 23.4841 0.123744C22.9836 -0.0111499 22.4532 -0.036204 21.9392 0.0507743C21.4251 0.137753 20.9432 0.334112 20.5355 0.622671C20.1279 0.911229 19.8069 1.28319 19.6007 1.70601L16.6849 7.68476C15.2849 7.44148 13.8381 7.50515 12.4727 7.87014C11.1073 8.23514 9.8653 8.89021 8.85653 9.77741L5.72663 12.5279C5.46956 12.7541 5.32516 13.0607 5.32516 13.3804C5.32516 13.7001 5.46956 14.0067 5.72663 14.2329L10.2934 18.2477L0.43692 26.911C0.302047 27.0215 0.19387 27.1547 0.11884 27.3026C0.0438104 27.4506 0.00346578 27.6104 0.000213641 27.7724C-0.0030385 27.9343 0.0308681 28.0952 0.0999107 28.2454C0.168953 28.3957 0.271718 28.5321 0.402073 28.6467C0.532428 28.7612 0.687704 28.8515 0.858637 28.9122C1.02957 28.9729 1.21266 29.0027 1.39698 28.9998C1.5813 28.997 1.76308 28.9615 1.93147 28.8956C2.09986 28.8296 2.25142 28.7346 2.37709 28.616L12.2354 19.9543L16.8021 23.9675C16.9296 24.0796 17.0809 24.1685 17.2475 24.2292C17.4142 24.2899 17.5927 24.3211 17.7731 24.3211C17.9534 24.3211 18.132 24.2899 18.2986 24.2292C18.4652 24.1685 18.6166 24.0796 18.7441 23.9675L21.874 21.217C22.8839 20.3307 23.6296 19.2393 24.0453 18.0393C24.461 16.8394 24.5337 15.568 24.2571 14.3375L31.0587 11.7768C31.5398 11.5956 31.9631 11.3135 32.2914 10.9552C32.6198 10.597 32.8432 10.1735 32.9422 9.72174C33.0412 9.27002 33.0127 8.80387 32.8592 8.36408C32.7057 7.92429 32.4319 7.52426 32.0617 7.199L24.8099 0.824557ZM22.1229 2.65663C22.1524 2.59613 22.1983 2.54291 22.2566 2.50165C22.3149 2.46038 22.3839 2.43232 22.4574 2.41994C22.531 2.40755 22.6069 2.41121 22.6784 2.43061C22.75 2.45 22.815 2.48453 22.8679 2.53116L30.1215 8.904C30.1746 8.95054 30.2138 9.00781 30.2357 9.07077C30.2576 9.13374 30.2616 9.20048 30.2474 9.26512C30.2331 9.32977 30.201 9.39034 30.1538 9.44152C30.1067 9.4927 30.0459 9.53292 29.9769 9.55865L22.079 12.5344C21.7584 12.6556 21.5024 12.8795 21.363 13.1607C21.2236 13.4418 21.2113 13.7591 21.3285 14.0479C21.709 14.9811 21.7798 15.9901 21.5325 16.9573C21.2852 17.9245 20.7302 18.8099 19.932 19.5104L17.7722 21.4084L8.63872 13.382L10.7985 11.484C11.5958 10.7829 12.6035 10.2954 13.704 10.0783C14.8046 9.86134 15.9527 9.92376 17.0144 10.2583C17.3433 10.3619 17.7048 10.3513 18.0252 10.2288C18.3455 10.1062 18.6007 9.88097 18.7386 9.59887L22.1229 2.65663Z" fill="#D27C2C"/>
</svg>
